<svg xmlns="http://www.w3.org/2000/svg" width="72" height="72" viewBox="0 0 72 72" shape-rendering="crispEdges">
  <rect width="72" height="72" fill="none"/>
  <rect x="10" y="42" width="7" height="16" fill="#5e9646"/>
  <rect x="18" y="38" width="8" height="20" fill="#67a54f"/>
  <rect x="27" y="40" width="8" height="18" fill="#5f9948"/>
  <rect x="36" y="37" width="8" height="21" fill="#69ab51"/>
  <rect x="45" y="40" width="8" height="18" fill="#5f9948"/>
  <rect x="54" y="38" width="8" height="20" fill="#67a54f"/>
  <rect x="12" y="35" width="6" height="5" fill="#7ac261"/>
  <rect x="20" y="31" width="8" height="7" fill="#82cb69"/>
  <rect x="30" y="33" width="8" height="6" fill="#76bb5d"/>
  <rect x="39" y="30" width="8" height="7" fill="#82cb69"/>
  <rect x="49" y="33" width="8" height="6" fill="#76bb5d"/>
  <rect x="58" y="31" width="6" height="7" fill="#7fc765"/>
  <rect x="14" y="58" width="5" height="5" fill="#de7a32"/>
  <rect x="23" y="58" width="5" height="5" fill="#e68238"/>
  <rect x="32" y="58" width="5" height="5" fill="#d9732d"/>
  <rect x="41" y="58" width="5" height="5" fill="#e68238"/>
  <rect x="50" y="58" width="5" height="5" fill="#dc7831"/>
  <rect x="58" y="58" width="4" height="5" fill="#e07e35"/>
</svg>
