<svg xmlns="http://www.w3.org/2000/svg" width="72" height="72" viewBox="0 0 72 72" shape-rendering="crispEdges">
  <rect width="72" height="72" fill="none"/>
  <rect x="10" y="46" width="10" height="10" fill="#5d8e46"/>
  <rect x="20" y="43" width="12" height="13" fill="#669a4d"/>
  <rect x="32" y="45" width="11" height="11" fill="#59863f"/>
  <rect x="43" y="42" width="12" height="14" fill="#64984b"/>
  <rect x="55" y="46" width="7" height="10" fill="#5b8a42"/>
  <rect x="12" y="38" width="8" height="8" fill="#6fac55"/>
  <rect x="22" y="36" width="10" height="8" fill="#74b45a"/>
  <rect x="34" y="37" width="9" height="8" fill="#68a24f"/>
  <rect x="45" y="35" width="10" height="8" fill="#72b258"/>
  <rect x="55" y="38" width="7" height="8" fill="#6ea953"/>
  <rect x="18" y="55" width="5" height="4" fill="#a98460"/>
  <rect x="28" y="56" width="5" height="4" fill="#b48f69"/>
  <rect x="38" y="55" width="5" height="4" fill="#a47d59"/>
  <rect x="48" y="56" width="5" height="4" fill="#b28b66"/>
</svg>
