<svg xmlns="http://www.w3.org/2000/svg" width="72" height="72" viewBox="0 0 72 72" shape-rendering="crispEdges">
  <rect width="72" height="72" fill="none"/>
  <rect x="10" y="34" width="4" height="26" fill="#5b8640"/>
  <rect x="16" y="32" width="4" height="28" fill="#638f45"/>
  <rect x="22" y="34" width="4" height="26" fill="#5b8640"/>
  <rect x="28" y="31" width="4" height="29" fill="#669448"/>
  <rect x="34" y="33" width="4" height="27" fill="#608b43"/>
  <rect x="40" y="31" width="4" height="29" fill="#669448"/>
  <rect x="46" y="34" width="4" height="26" fill="#5b8640"/>
  <rect x="52" y="32" width="4" height="28" fill="#638f45"/>
  <rect x="9" y="24" width="5" height="6" fill="#f0cb63"/>
  <rect x="15" y="20" width="5" height="8" fill="#f6d773"/>
  <rect x="21" y="24" width="5" height="6" fill="#efc75f"/>
  <rect x="27" y="19" width="5" height="9" fill="#f7da7a"/>
  <rect x="33" y="22" width="5" height="7" fill="#f1cd66"/>
  <rect x="39" y="19" width="5" height="9" fill="#f7da7a"/>
  <rect x="45" y="24" width="5" height="6" fill="#efc75f"/>
  <rect x="51" y="20" width="5" height="8" fill="#f6d773"/>
</svg>
