<svg xmlns="http://www.w3.org/2000/svg" width="72" height="72" viewBox="0 0 72 72" shape-rendering="crispEdges">
  <rect width="72" height="72" fill="#2e2016"/>
  <rect x="2" y="2" width="68" height="68" fill="#563925"/>
  <rect x="4" y="4" width="64" height="64" fill="#6a472f"/>
  <rect x="6" y="12" width="60" height="4" fill="#4e3323"/>
  <rect x="6" y="24" width="60" height="4" fill="#4e3323"/>
  <rect x="6" y="36" width="60" height="4" fill="#4e3323"/>
  <rect x="6" y="48" width="60" height="4" fill="#4e3323"/>
  <rect x="6" y="60" width="60" height="4" fill="#4e3323"/>
  <rect x="8" y="8" width="4" height="4" fill="#72a857"/>
  <rect x="14" y="6" width="3" height="3" fill="#7eb864"/>
  <rect x="52" y="8" width="4" height="4" fill="#74ab59"/>
  <rect x="58" y="6" width="3" height="3" fill="#80bd66"/>
  <rect x="9" y="61" width="4" height="4" fill="#6ea253"/>
  <rect x="55" y="61" width="4" height="4" fill="#6ea253"/>
  <rect x="20" y="18" width="2" height="2" fill="#86624a"/>
  <rect x="44" y="30" width="2" height="2" fill="#86624a"/>
  <rect x="30" y="44" width="2" height="2" fill="#86624a"/>
</svg>
