<svg xmlns="http://www.w3.org/2000/svg" width="72" height="72" viewBox="0 0 72 72" shape-rendering="crispEdges">
  <rect width="72" height="72" fill="#352515"/>
  <rect x="2" y="2" width="68" height="68" fill="#5e4027"/>
  <rect x="4" y="4" width="64" height="64" fill="#714c30"/>
  <rect x="1" y="1" width="70" height="4" fill="#ffd57f"/>
  <rect x="1" y="67" width="70" height="4" fill="#efb85e"/>
  <rect x="1" y="5" width="4" height="62" fill="#ffd57f"/>
  <rect x="67" y="5" width="4" height="62" fill="#efb85e"/>
  <rect x="6" y="12" width="60" height="4" fill="#4b311e"/>
  <rect x="6" y="24" width="60" height="4" fill="#4b311e"/>
  <rect x="6" y="36" width="60" height="4" fill="#4b311e"/>
  <rect x="6" y="48" width="60" height="4" fill="#4b311e"/>
  <rect x="6" y="60" width="60" height="4" fill="#4b311e"/>
  <rect x="10" y="8" width="3" height="3" fill="#ffe79e"/>
  <rect x="58" y="8" width="3" height="3" fill="#ffe79e"/>
  <rect x="10" y="61" width="3" height="3" fill="#ffe79e"/>
  <rect x="58" y="61" width="3" height="3" fill="#ffe79e"/>
</svg>
