<svg xmlns="http://www.w3.org/2000/svg" width="128" height="24" viewBox="0 0 128 24" shape-rendering="crispEdges">
  <defs>
    <g id="head-front">
      <rect x="4" y="1" width="8" height="2" fill="#008888"/>
      <rect x="4" y="1" width="8" height="1" fill="#00ffff"/>
      <rect x="4" y="2" width="8" height="4" fill="#ffe0cc"/>
      <rect x="4" y="3" width="8" height="2" fill="#ff00ff"/>
    </g>

    <g id="body-down-a">
      <rect x="5" y="6" width="6" height="6" fill="#222222"/>
      <rect x="7" y="6" width="2" height="6" fill="#00ffff"/>
      <rect x="4" y="7" width="1" height="4" fill="#ff00ff"/>
      <rect x="11" y="7" width="1" height="4" fill="#ff00ff"/>
      <rect x="6" y="12" width="2" height="5" fill="#333344"/>
      <rect x="8" y="12" width="2" height="5" fill="#222233"/>
      <rect x="5" y="17" width="2" height="2" fill="#dddddd"/>
      <rect x="9" y="17" width="2" height="2" fill="#dddddd"/>
    </g>

    <g id="body-down-b">
      <rect x="5" y="6" width="6" height="6" fill="#222222"/>
      <rect x="7" y="6" width="2" height="6" fill="#00ffff"/>
      <rect x="4" y="7" width="1" height="4" fill="#ff00ff"/>
      <rect x="11" y="7" width="1" height="4" fill="#ff00ff"/>
      <rect x="5" y="12" width="2" height="5" fill="#333344"/>
      <rect x="9" y="12" width="2" height="5" fill="#222233"/>
      <rect x="4" y="17" width="2" height="2" fill="#dddddd"/>
      <rect x="10" y="17" width="2" height="2" fill="#dddddd"/>
    </g>

    <g id="head-side">
      <rect x="4" y="1" width="8" height="3" fill="#008888"/>
      <rect x="4" y="2" width="8" height="4" fill="#ffe0cc"/>
      <rect x="4" y="3" width="8" height="2" fill="#ff00ff"/>
      <rect x="8" y="4" width="2" height="2" fill="#00ffff"/>
    </g>

    <g id="body-left-a">
      <rect x="5" y="6" width="6" height="6" fill="#222222"/>
      <rect x="5" y="7" width="2" height="4" fill="#ff00ff"/>
      <rect x="5" y="12" width="2" height="5" fill="#333344"/>
      <rect x="8" y="12" width="2" height="5" fill="#222233"/>
      <rect x="4" y="17" width="2" height="2" fill="#dddddd"/>
      <rect x="8" y="17" width="2" height="2" fill="#aaaaaa"/>
    </g>

    <g id="body-left-b">
      <rect x="5" y="6" width="6" height="6" fill="#222222"/>
      <rect x="5" y="7" width="2" height="4" fill="#ff00ff"/>
      <rect x="4" y="12" width="2" height="5" fill="#333344"/>
      <rect x="9" y="12" width="2" height="5" fill="#222233"/>
      <rect x="3" y="17" width="2" height="2" fill="#dddddd"/>
      <rect x="10" y="17" width="2" height="2" fill="#aaaaaa"/>
    </g>

    <g id="head-back">
      <rect x="4" y="1" width="8" height="5" fill="#008888"/>
      <rect x="4" y="1" width="8" height="2" fill="#00ffff"/>
    </g>

    <g id="body-up-a">
      <rect x="5" y="6" width="6" height="6" fill="#222222"/>
      <rect x="6" y="7" width="4" height="4" fill="#ff00ff"/>
      <rect x="6" y="12" width="2" height="5" fill="#333344"/>
      <rect x="8" y="12" width="2" height="5" fill="#222233"/>
      <rect x="5" y="17" width="2" height="2" fill="#aaaaaa"/>
      <rect x="9" y="17" width="2" height="2" fill="#aaaaaa"/>
    </g>

    <g id="body-up-b">
      <rect x="5" y="6" width="6" height="6" fill="#222222"/>
      <rect x="6" y="7" width="4" height="4" fill="#ff00ff"/>
      <rect x="5" y="12" width="2" height="5" fill="#333344"/>
      <rect x="9" y="12" width="2" height="5" fill="#222233"/>
      <rect x="4" y="17" width="2" height="2" fill="#aaaaaa"/>
      <rect x="10" y="17" width="2" height="2" fill="#aaaaaa"/>
    </g>
  </defs>

  <g transform="translate(0,0)"><use href="#head-front"/><use href="#body-down-a"/></g>
  <g transform="translate(16,0)"><use href="#head-front"/><use href="#body-down-b"/></g>
  <g transform="translate(32,0)"><use href="#head-side"/><use href="#body-left-a"/></g>
  <g transform="translate(48,0)"><use href="#head-side"/><use href="#body-left-b"/></g>
  <g transform="translate(64,0)"><g transform="translate(16,0) scale(-1,1)"><use href="#head-side"/><use href="#body-left-a"/></g></g>
  <g transform="translate(80,0)"><g transform="translate(16,0) scale(-1,1)"><use href="#head-side"/><use href="#body-left-b"/></g></g>
  <g transform="translate(96,0)"><use href="#head-back"/><use href="#body-up-a"/></g>
  <g transform="translate(112,0)"><use href="#head-back"/><use href="#body-up-b"/></g>
</svg>